<svg width="14" height="14" viewBox="0 0 14 14" fill="none" xmlns="http://www.w3.org/2000/svg">
<path fill-rule="evenodd" clip-rule="evenodd" d="M7.77778 5.05556H11.6667V3.5H7.77778V5.05556ZM7.77778 10.5H11.6667V8.94444H7.77778V10.5ZM12.4444 14H1.55556C0.7 14 0 13.3 0 12.4444V1.55556C0 0.7 0.7 0 1.55556 0H12.4444C13.3 0 14 0.7 14 1.55556V12.4444C14 13.3 13.3 14 12.4444 14ZM2.33333 6.22222H6.22222V2.33333H2.33333V6.22222ZM3.11111 3.11111H5.44444V5.44444H3.11111V3.11111ZM2.33333 11.6667H6.22222V7.77778H2.33333V11.6667ZM3.11111 8.55556H5.44444V10.8889H3.11111V8.55556Z" fill="#030303"/>
</svg>
