<?xml version="1.0" encoding="utf-8"?>
<!-- Generator: Adobe Illustrator 17.0.0, SVG Export Plug-In . SVG Version: 6.00 Build 0)  -->
<!DOCTYPE svg PUBLIC "-//W3C//DTD SVG 1.1//EN" "http://www.w3.org/Graphics/SVG/1.1/DTD/svg11.dtd">
<svg version="1.1" id="Layer_1" xmlns="http://www.w3.org/2000/svg" xmlns:xlink="http://www.w3.org/1999/xlink" x="0px" y="0px"
	 width="550px" height="376px" viewBox="0 0 550 376" enable-background="new 0 0 550 376" xml:space="preserve">
<g>
	
		<line fill="none" stroke="#010101" stroke-width="10" stroke-miterlimit="10" x1="125.031" y1="356.167" x2="75.014" y2="289.496"/>
	<polyline fill="none" stroke="#010101" stroke-width="10" stroke-miterlimit="10" points="225.067,356.167 174.961,289.496 
		125.031,222.914 	"/>
	<polyline fill="none" stroke="#010101" stroke-width="10" stroke-miterlimit="10" points="324.925,356.167 274.996,289.496 
		225.067,222.914 174.961,156.243 	"/>
	<polyline fill="none" stroke="#010101" stroke-width="10" stroke-miterlimit="10" points="225.067,89.75 274.996,156.243 
		324.925,222.914 375.031,289.496 424.961,356.167 	"/>
	
		<line fill="none" stroke="#010101" stroke-width="10" stroke-miterlimit="10" x1="474.978" y1="289.585" x2="424.961" y2="356.167"/>
	<polyline fill="none" stroke="#010101" stroke-width="10" stroke-miterlimit="10" points="424.961,222.914 375.031,289.496 
		324.925,356.167 	"/>
	<polyline fill="none" stroke="#010101" stroke-width="10" stroke-miterlimit="10" points="375.031,156.42 324.925,222.914 
		274.996,289.496 225.067,356.167 	"/>
	<polyline fill="none" stroke="#010101" stroke-width="10" stroke-miterlimit="10" points="324.925,89.75 274.996,156.243 
		225.067,222.914 174.961,289.496 125.031,356.167 	"/>
	<polygon fill="none" stroke="#010101" stroke-width="10" stroke-miterlimit="10" points="524.996,356.167 24.996,356.167 
		75.014,289.496 125.031,222.914 174.961,156.243 225.067,89.75 274.996,23.167 324.925,89.75 375.031,156.243 375.031,156.42 
		424.96,222.914 474.979,289.496 474.979,289.585 	"/>
</g>
</svg>
