<svg width="360" height="211" viewBox="0 0 360 211" fill="none" xmlns="http://www.w3.org/2000/svg">
<path d="M357.171 0H2.82899C1.26658 0 0 1.24759 0 2.78657V208.213C0 209.752 1.26658 211 2.82899 211H357.171C358.733 211 360 209.752 360 208.213V2.78657C360 1.24759 358.733 0 357.171 0Z" fill="#939393"/>
<path d="M360 25H0V70H360V25Z" fill="#161615"/>
<path d="M340 105H265V140H340V105Z" fill="white" stroke="#A4A4A3" stroke-width="0.5" stroke-miterlimit="10"/>
<path d="M281.266 93.293C281.16 94.1953 280.826 94.8926 280.264 95.3848C279.705 95.873 278.961 96.1172 278.031 96.1172C277.023 96.1172 276.215 95.7559 275.605 95.0332C275 94.3105 274.697 93.3438 274.697 92.1328V91.3125C274.697 90.5195 274.838 89.8223 275.119 89.2207C275.404 88.6191 275.807 88.1582 276.326 87.8379C276.846 87.5137 277.447 87.3516 278.131 87.3516C279.037 87.3516 279.764 87.6055 280.311 88.1133C280.857 88.6172 281.176 89.3164 281.266 90.2109H280.135C280.037 89.5312 279.824 89.0391 279.496 88.7344C279.172 88.4297 278.717 88.2773 278.131 88.2773C277.412 88.2773 276.848 88.543 276.438 89.0742C276.031 89.6055 275.828 90.3613 275.828 91.3418V92.168C275.828 93.0938 276.021 93.8301 276.408 94.377C276.795 94.9238 277.336 95.1973 278.031 95.1973C278.656 95.1973 279.135 95.0566 279.467 94.7754C279.803 94.4902 280.025 93.9961 280.135 93.293H281.266ZM285.631 94.5059L288.068 87.4688H289.299L286.135 96H285.139L281.98 87.4688H283.205L285.631 94.5059ZM296.641 93.293C296.535 94.1953 296.201 94.8926 295.639 95.3848C295.08 95.873 294.336 96.1172 293.406 96.1172C292.398 96.1172 291.59 95.7559 290.98 95.0332C290.375 94.3105 290.072 93.3438 290.072 92.1328V91.3125C290.072 90.5195 290.213 89.8223 290.494 89.2207C290.779 88.6191 291.182 88.1582 291.701 87.8379C292.221 87.5137 292.822 87.3516 293.506 87.3516C294.412 87.3516 295.139 87.6055 295.686 88.1133C296.232 88.6172 296.551 89.3164 296.641 90.2109H295.51C295.412 89.5312 295.199 89.0391 294.871 88.7344C294.547 88.4297 294.092 88.2773 293.506 88.2773C292.787 88.2773 292.223 88.543 291.812 89.0742C291.406 89.6055 291.203 90.3613 291.203 91.3418V92.168C291.203 93.0938 291.396 93.8301 291.783 94.377C292.17 94.9238 292.711 95.1973 293.406 95.1973C294.031 95.1973 294.51 95.0566 294.842 94.7754C295.178 94.4902 295.4 93.9961 295.51 93.293H296.641ZM298.229 96.7324H297.297L300.859 87.4688H301.785L298.229 96.7324ZM309.402 93.293C309.297 94.1953 308.963 94.8926 308.4 95.3848C307.842 95.873 307.098 96.1172 306.168 96.1172C305.16 96.1172 304.352 95.7559 303.742 95.0332C303.137 94.3105 302.834 93.3438 302.834 92.1328V91.3125C302.834 90.5195 302.975 89.8223 303.256 89.2207C303.541 88.6191 303.943 88.1582 304.463 87.8379C304.982 87.5137 305.584 87.3516 306.268 87.3516C307.174 87.3516 307.9 87.6055 308.447 88.1133C308.994 88.6172 309.312 89.3164 309.402 90.2109H308.271C308.174 89.5312 307.961 89.0391 307.633 88.7344C307.309 88.4297 306.854 88.2773 306.268 88.2773C305.549 88.2773 304.984 88.543 304.574 89.0742C304.168 89.6055 303.965 90.3613 303.965 91.3418V92.168C303.965 93.0938 304.158 93.8301 304.545 94.377C304.932 94.9238 305.473 95.1973 306.168 95.1973C306.793 95.1973 307.271 95.0566 307.604 94.7754C307.939 94.4902 308.162 93.9961 308.271 93.293H309.402ZM313.768 94.5059L316.205 87.4688H317.436L314.271 96H313.275L310.117 87.4688H311.342L313.768 94.5059ZM321.408 94.5059L323.846 87.4688H325.076L321.912 96H320.916L317.758 87.4688H318.982L321.408 94.5059Z" fill="#161615"/>
<path d="M280.737 148.662H278.452V155H277.52V148.662H275.239V147.891H280.737V148.662ZM282.554 150.356C282.954 149.865 283.475 149.619 284.116 149.619C285.233 149.619 285.796 150.249 285.806 151.509V155H284.902V151.504C284.899 151.123 284.811 150.841 284.639 150.659C284.469 150.477 284.204 150.386 283.843 150.386C283.55 150.386 283.293 150.464 283.071 150.62C282.85 150.776 282.677 150.981 282.554 151.235V155H281.65V147.5H282.554V150.356ZM289.351 155.098C288.634 155.098 288.052 154.863 287.603 154.395C287.153 153.923 286.929 153.293 286.929 152.505V152.339C286.929 151.815 287.028 151.348 287.227 150.938C287.428 150.524 287.708 150.202 288.066 149.971C288.428 149.736 288.818 149.619 289.238 149.619C289.925 149.619 290.459 149.845 290.84 150.298C291.221 150.75 291.411 151.398 291.411 152.241V152.617H287.832C287.845 153.138 287.996 153.56 288.286 153.882C288.579 154.201 288.95 154.36 289.399 154.36C289.718 154.36 289.989 154.295 290.21 154.165C290.431 154.035 290.625 153.862 290.791 153.647L291.343 154.077C290.9 154.757 290.236 155.098 289.351 155.098ZM289.238 150.361C288.874 150.361 288.568 150.495 288.32 150.762C288.073 151.025 287.92 151.396 287.861 151.875H290.508V151.807C290.482 151.348 290.358 150.993 290.137 150.742C289.915 150.488 289.616 150.361 289.238 150.361ZM295.923 155H295.02V147.5H295.923V155ZM300.635 155C300.583 154.896 300.54 154.71 300.508 154.443C300.088 154.88 299.587 155.098 299.004 155.098C298.483 155.098 298.055 154.951 297.72 154.658C297.388 154.362 297.222 153.988 297.222 153.535C297.222 152.985 297.43 152.559 297.847 152.256C298.267 151.95 298.856 151.797 299.614 151.797H300.493V151.382C300.493 151.066 300.399 150.815 300.21 150.63C300.021 150.441 299.743 150.347 299.375 150.347C299.053 150.347 298.783 150.428 298.564 150.591C298.346 150.754 298.237 150.951 298.237 151.182H297.329C297.329 150.918 297.422 150.664 297.607 150.42C297.796 150.173 298.05 149.977 298.369 149.834C298.691 149.691 299.045 149.619 299.429 149.619C300.037 149.619 300.514 149.772 300.859 150.078C301.204 150.381 301.383 150.799 301.396 151.333V153.765C301.396 154.25 301.458 154.635 301.582 154.922V155H300.635ZM299.136 154.312C299.419 154.312 299.688 154.238 299.941 154.092C300.195 153.945 300.379 153.755 300.493 153.521V152.437H299.785C298.678 152.437 298.125 152.76 298.125 153.408C298.125 153.691 298.219 153.913 298.408 154.072C298.597 154.232 298.84 154.312 299.136 154.312ZM305.889 153.599C305.889 153.354 305.796 153.166 305.61 153.032C305.428 152.896 305.107 152.778 304.648 152.681C304.193 152.583 303.83 152.466 303.56 152.329C303.293 152.192 303.094 152.03 302.964 151.841C302.837 151.652 302.773 151.427 302.773 151.167C302.773 150.734 302.956 150.368 303.32 150.068C303.688 149.769 304.157 149.619 304.727 149.619C305.326 149.619 305.811 149.774 306.182 150.083C306.556 150.392 306.743 150.788 306.743 151.27H305.835C305.835 151.022 305.729 150.809 305.518 150.63C305.309 150.451 305.046 150.361 304.727 150.361C304.398 150.361 304.141 150.433 303.955 150.576C303.77 150.719 303.677 150.907 303.677 151.138C303.677 151.356 303.763 151.52 303.936 151.631C304.108 151.742 304.419 151.847 304.868 151.948C305.321 152.049 305.687 152.17 305.967 152.31C306.247 152.45 306.453 152.619 306.587 152.817C306.724 153.013 306.792 153.252 306.792 153.535C306.792 154.007 306.603 154.386 306.226 154.673C305.848 154.956 305.358 155.098 304.756 155.098C304.333 155.098 303.958 155.023 303.633 154.873C303.307 154.723 303.052 154.515 302.866 154.248C302.684 153.978 302.593 153.687 302.593 153.374H303.496C303.512 153.677 303.633 153.918 303.857 154.097C304.085 154.272 304.385 154.36 304.756 154.36C305.098 154.36 305.371 154.292 305.576 154.155C305.785 154.015 305.889 153.83 305.889 153.599ZM309.194 148.438V149.717H310.181V150.415H309.194V153.691C309.194 153.903 309.238 154.062 309.326 154.17C309.414 154.274 309.564 154.326 309.775 154.326C309.88 154.326 310.023 154.307 310.205 154.268V155C309.967 155.065 309.736 155.098 309.512 155.098C309.108 155.098 308.804 154.976 308.599 154.731C308.394 154.487 308.291 154.141 308.291 153.691V150.415H307.329V149.717H308.291V148.438H309.194ZM276.904 163.006H277.583C278.009 162.999 278.345 162.887 278.589 162.669C278.833 162.451 278.955 162.156 278.955 161.785C278.955 160.952 278.54 160.535 277.71 160.535C277.319 160.535 277.007 160.647 276.772 160.872C276.541 161.093 276.426 161.388 276.426 161.756H275.522C275.522 161.193 275.728 160.726 276.138 160.354C276.551 159.98 277.075 159.793 277.71 159.793C278.381 159.793 278.906 159.97 279.287 160.325C279.668 160.68 279.858 161.173 279.858 161.805C279.858 162.114 279.757 162.413 279.556 162.703C279.357 162.993 279.085 163.209 278.74 163.353C279.131 163.476 279.432 163.681 279.644 163.968C279.858 164.254 279.966 164.604 279.966 165.018C279.966 165.656 279.757 166.162 279.341 166.536C278.924 166.91 278.382 167.098 277.715 167.098C277.048 167.098 276.504 166.917 276.084 166.556C275.667 166.194 275.459 165.717 275.459 165.125H276.367C276.367 165.499 276.489 165.799 276.733 166.023C276.978 166.248 277.305 166.36 277.715 166.36C278.151 166.36 278.485 166.246 278.716 166.019C278.947 165.791 279.062 165.464 279.062 165.037C279.062 164.624 278.936 164.306 278.682 164.085C278.428 163.864 278.062 163.75 277.583 163.743H276.904V163.006ZM283.54 164.31C283.54 163.792 283.641 163.326 283.843 162.913C284.048 162.5 284.331 162.181 284.692 161.956C285.057 161.731 285.472 161.619 285.938 161.619C286.657 161.619 287.238 161.868 287.681 162.366C288.127 162.864 288.35 163.527 288.35 164.354V164.417C288.35 164.931 288.25 165.394 288.052 165.804C287.856 166.211 287.575 166.528 287.207 166.756C286.842 166.984 286.423 167.098 285.947 167.098C285.231 167.098 284.65 166.849 284.204 166.351C283.761 165.853 283.54 165.193 283.54 164.373V164.31ZM284.448 164.417C284.448 165.003 284.583 165.473 284.854 165.828C285.127 166.183 285.492 166.36 285.947 166.36C286.406 166.36 286.771 166.181 287.041 165.823C287.311 165.462 287.446 164.957 287.446 164.31C287.446 163.73 287.308 163.261 287.031 162.903C286.758 162.542 286.393 162.361 285.938 162.361C285.492 162.361 285.132 162.539 284.858 162.894C284.585 163.248 284.448 163.756 284.448 164.417ZM292.036 162.527C291.899 162.505 291.751 162.493 291.592 162.493C290.999 162.493 290.597 162.745 290.386 163.25V167H289.482V161.717H290.361L290.376 162.327C290.672 161.855 291.092 161.619 291.636 161.619C291.812 161.619 291.945 161.642 292.036 161.688V162.527ZM299.072 164.612H300.059V165.35H299.072V167H298.164V165.35H294.927V164.817L298.11 159.891H299.072V164.612ZM295.952 164.612H298.164V161.126L298.057 161.321L295.952 164.612ZM303.228 164.314C303.228 163.504 303.42 162.853 303.804 162.361C304.188 161.867 304.691 161.619 305.312 161.619C305.931 161.619 306.421 161.831 306.782 162.254V159.5H307.686V167H306.855L306.812 166.434C306.45 166.876 305.947 167.098 305.303 167.098C304.691 167.098 304.191 166.847 303.804 166.346C303.42 165.844 303.228 165.19 303.228 164.383V164.314ZM304.131 164.417C304.131 165.016 304.255 165.485 304.502 165.823C304.749 166.162 305.091 166.331 305.527 166.331C306.1 166.331 306.519 166.074 306.782 165.56V163.133C306.512 162.635 306.097 162.386 305.537 162.386C305.094 162.386 304.749 162.557 304.502 162.898C304.255 163.24 304.131 163.746 304.131 164.417ZM310.073 167H309.17V161.717H310.073V167ZM309.097 160.315C309.097 160.169 309.141 160.045 309.229 159.944C309.32 159.843 309.453 159.793 309.629 159.793C309.805 159.793 309.938 159.843 310.029 159.944C310.12 160.045 310.166 160.169 310.166 160.315C310.166 160.462 310.12 160.584 310.029 160.682C309.938 160.779 309.805 160.828 309.629 160.828C309.453 160.828 309.32 160.779 309.229 160.682C309.141 160.584 309.097 160.462 309.097 160.315ZM311.309 164.314C311.309 163.491 311.499 162.837 311.88 162.352C312.261 161.863 312.765 161.619 313.394 161.619C314.038 161.619 314.541 161.847 314.902 162.303L314.946 161.717H315.771V166.873C315.771 167.557 315.568 168.095 315.161 168.489C314.757 168.883 314.214 169.08 313.53 169.08C313.149 169.08 312.777 168.999 312.412 168.836C312.048 168.673 311.769 168.45 311.577 168.167L312.046 167.625C312.433 168.104 312.907 168.343 313.467 168.343C313.906 168.343 314.248 168.219 314.492 167.972C314.74 167.724 314.863 167.376 314.863 166.927V166.473C314.502 166.889 314.009 167.098 313.384 167.098C312.765 167.098 312.264 166.849 311.88 166.351C311.499 165.853 311.309 165.174 311.309 164.314ZM312.217 164.417C312.217 165.013 312.339 165.481 312.583 165.823C312.827 166.162 313.169 166.331 313.608 166.331C314.178 166.331 314.596 166.072 314.863 165.555V163.143C314.587 162.638 314.172 162.386 313.618 162.386C313.179 162.386 312.835 162.557 312.588 162.898C312.34 163.24 312.217 163.746 312.217 164.417ZM318.12 167H317.217V161.717H318.12V167ZM317.144 160.315C317.144 160.169 317.188 160.045 317.275 159.944C317.367 159.843 317.5 159.793 317.676 159.793C317.852 159.793 317.985 159.843 318.076 159.944C318.167 160.045 318.213 160.169 318.213 160.315C318.213 160.462 318.167 160.584 318.076 160.682C317.985 160.779 317.852 160.828 317.676 160.828C317.5 160.828 317.367 160.779 317.275 160.682C317.188 160.584 317.144 160.462 317.144 160.315ZM320.796 160.438V161.717H321.782V162.415H320.796V165.691C320.796 165.903 320.84 166.062 320.928 166.17C321.016 166.274 321.165 166.326 321.377 166.326C321.481 166.326 321.624 166.307 321.807 166.268V167C321.569 167.065 321.338 167.098 321.113 167.098C320.71 167.098 320.405 166.976 320.2 166.731C319.995 166.487 319.893 166.141 319.893 165.691V162.415H318.931V161.717H319.893V160.438H320.796ZM325.918 165.599C325.918 165.354 325.825 165.166 325.64 165.032C325.457 164.896 325.137 164.778 324.678 164.681C324.222 164.583 323.859 164.466 323.589 164.329C323.322 164.192 323.123 164.03 322.993 163.841C322.866 163.652 322.803 163.427 322.803 163.167C322.803 162.734 322.985 162.368 323.35 162.068C323.717 161.769 324.186 161.619 324.756 161.619C325.355 161.619 325.84 161.774 326.211 162.083C326.585 162.392 326.772 162.788 326.772 163.27H325.864C325.864 163.022 325.758 162.809 325.547 162.63C325.339 162.451 325.075 162.361 324.756 162.361C324.427 162.361 324.17 162.433 323.984 162.576C323.799 162.719 323.706 162.907 323.706 163.138C323.706 163.356 323.792 163.52 323.965 163.631C324.137 163.742 324.448 163.847 324.897 163.948C325.35 164.049 325.716 164.17 325.996 164.31C326.276 164.45 326.483 164.619 326.616 164.817C326.753 165.013 326.821 165.252 326.821 165.535C326.821 166.007 326.632 166.386 326.255 166.673C325.877 166.956 325.387 167.098 324.785 167.098C324.362 167.098 323.988 167.023 323.662 166.873C323.337 166.723 323.081 166.515 322.896 166.248C322.713 165.978 322.622 165.687 322.622 165.374H323.525C323.542 165.677 323.662 165.918 323.887 166.097C324.115 166.272 324.414 166.36 324.785 166.36C325.127 166.36 325.4 166.292 325.605 166.155C325.814 166.015 325.918 165.83 325.918 165.599ZM275.444 176.31C275.444 175.792 275.545 175.326 275.747 174.913C275.952 174.5 276.235 174.181 276.597 173.956C276.961 173.731 277.376 173.619 277.842 173.619C278.561 173.619 279.142 173.868 279.585 174.366C280.031 174.864 280.254 175.527 280.254 176.354V176.417C280.254 176.931 280.155 177.394 279.956 177.804C279.761 178.211 279.479 178.528 279.111 178.756C278.747 178.984 278.327 179.098 277.852 179.098C277.135 179.098 276.554 178.849 276.108 178.351C275.666 177.853 275.444 177.193 275.444 176.373V176.31ZM276.353 176.417C276.353 177.003 276.488 177.473 276.758 177.828C277.031 178.183 277.396 178.36 277.852 178.36C278.311 178.36 278.675 178.181 278.945 177.823C279.215 177.462 279.351 176.957 279.351 176.31C279.351 175.73 279.212 175.261 278.936 174.903C278.662 174.542 278.298 174.361 277.842 174.361C277.396 174.361 277.036 174.539 276.763 174.894C276.489 175.248 276.353 175.756 276.353 176.417ZM282.241 173.717L282.271 174.381C282.674 173.873 283.201 173.619 283.853 173.619C284.969 173.619 285.532 174.249 285.542 175.509V179H284.639V175.504C284.635 175.123 284.548 174.841 284.375 174.659C284.206 174.477 283.94 174.386 283.579 174.386C283.286 174.386 283.029 174.464 282.808 174.62C282.586 174.776 282.414 174.981 282.29 175.235V179H281.387V173.717H282.241ZM293.857 176.417C293.857 177.224 293.672 177.874 293.301 178.365C292.93 178.854 292.432 179.098 291.807 179.098C291.139 179.098 290.623 178.862 290.259 178.39L290.215 179H289.385V171.5H290.288V174.298C290.653 173.845 291.156 173.619 291.797 173.619C292.438 173.619 292.941 173.862 293.306 174.347C293.674 174.832 293.857 175.496 293.857 176.339V176.417ZM292.954 176.314C292.954 175.699 292.835 175.224 292.598 174.889C292.36 174.553 292.018 174.386 291.572 174.386C290.977 174.386 290.549 174.662 290.288 175.216V177.501C290.565 178.054 290.996 178.331 291.582 178.331C292.015 178.331 292.352 178.163 292.593 177.828C292.834 177.493 292.954 176.988 292.954 176.314ZM298.262 179C298.21 178.896 298.167 178.71 298.135 178.443C297.715 178.88 297.214 179.098 296.631 179.098C296.11 179.098 295.682 178.951 295.347 178.658C295.015 178.362 294.849 177.988 294.849 177.535C294.849 176.985 295.057 176.559 295.474 176.256C295.894 175.95 296.483 175.797 297.241 175.797H298.12V175.382C298.12 175.066 298.026 174.815 297.837 174.63C297.648 174.441 297.37 174.347 297.002 174.347C296.68 174.347 296.41 174.428 296.191 174.591C295.973 174.754 295.864 174.951 295.864 175.182H294.956C294.956 174.918 295.049 174.664 295.234 174.42C295.423 174.173 295.677 173.977 295.996 173.834C296.318 173.691 296.672 173.619 297.056 173.619C297.664 173.619 298.141 173.772 298.486 174.078C298.831 174.381 299.01 174.799 299.023 175.333V177.765C299.023 178.25 299.085 178.635 299.209 178.922V179H298.262ZM296.763 178.312C297.046 178.312 297.314 178.238 297.568 178.092C297.822 177.945 298.006 177.755 298.12 177.521V176.437H297.412C296.305 176.437 295.752 176.76 295.752 177.408C295.752 177.691 295.846 177.913 296.035 178.072C296.224 178.232 296.466 178.312 296.763 178.312ZM302.559 178.36C302.881 178.36 303.162 178.263 303.403 178.067C303.644 177.872 303.778 177.628 303.804 177.335H304.658C304.642 177.638 304.538 177.926 304.346 178.199C304.154 178.473 303.896 178.691 303.574 178.854C303.255 179.016 302.917 179.098 302.559 179.098C301.839 179.098 301.266 178.858 300.84 178.38C300.417 177.898 300.205 177.241 300.205 176.407V176.256C300.205 175.742 300.299 175.284 300.488 174.884C300.677 174.483 300.947 174.173 301.299 173.951C301.654 173.73 302.072 173.619 302.554 173.619C303.146 173.619 303.638 173.797 304.028 174.151C304.422 174.506 304.632 174.967 304.658 175.533H303.804C303.778 175.191 303.647 174.911 303.413 174.693C303.182 174.472 302.896 174.361 302.554 174.361C302.095 174.361 301.738 174.527 301.484 174.859C301.234 175.188 301.108 175.665 301.108 176.29V176.461C301.108 177.07 301.234 177.538 301.484 177.867C301.735 178.196 302.093 178.36 302.559 178.36ZM307.148 176.554L306.582 177.145V179H305.679V171.5H306.582V176.036L307.065 175.455L308.711 173.717H309.81L307.754 175.924L310.049 179H308.989L307.148 176.554ZM275.444 188.31C275.444 187.792 275.545 187.326 275.747 186.913C275.952 186.5 276.235 186.181 276.597 185.956C276.961 185.731 277.376 185.619 277.842 185.619C278.561 185.619 279.142 185.868 279.585 186.366C280.031 186.864 280.254 187.527 280.254 188.354V188.417C280.254 188.931 280.155 189.394 279.956 189.804C279.761 190.211 279.479 190.528 279.111 190.756C278.747 190.984 278.327 191.098 277.852 191.098C277.135 191.098 276.554 190.849 276.108 190.351C275.666 189.853 275.444 189.193 275.444 188.373V188.31ZM276.353 188.417C276.353 189.003 276.488 189.473 276.758 189.828C277.031 190.183 277.396 190.36 277.852 190.36C278.311 190.36 278.675 190.181 278.945 189.823C279.215 189.462 279.351 188.957 279.351 188.31C279.351 187.73 279.212 187.261 278.936 186.903C278.662 186.542 278.298 186.361 277.842 186.361C277.396 186.361 277.036 186.539 276.763 186.894C276.489 187.248 276.353 187.756 276.353 188.417ZM281.831 191V186.415H280.996V185.717H281.831V185.175C281.831 184.608 281.982 184.171 282.285 183.861C282.588 183.552 283.016 183.397 283.569 183.397C283.778 183.397 283.984 183.425 284.189 183.48L284.141 184.213C283.988 184.184 283.825 184.169 283.652 184.169C283.359 184.169 283.133 184.255 282.974 184.428C282.814 184.597 282.734 184.841 282.734 185.16V185.717H283.862V186.415H282.734V191H281.831ZM288.569 184.438V185.717H289.556V186.415H288.569V189.691C288.569 189.903 288.613 190.062 288.701 190.17C288.789 190.274 288.939 190.326 289.15 190.326C289.255 190.326 289.398 190.307 289.58 190.268V191C289.342 191.065 289.111 191.098 288.887 191.098C288.483 191.098 288.179 190.976 287.974 190.731C287.769 190.487 287.666 190.141 287.666 189.691V186.415H286.704V185.717H287.666V184.438H288.569ZM291.519 186.356C291.919 185.865 292.44 185.619 293.081 185.619C294.198 185.619 294.761 186.249 294.771 187.509V191H293.867V187.504C293.864 187.123 293.776 186.841 293.604 186.659C293.434 186.477 293.169 186.386 292.808 186.386C292.515 186.386 292.257 186.464 292.036 186.62C291.815 186.776 291.642 186.981 291.519 187.235V191H290.615V183.5H291.519V186.356ZM298.315 191.098C297.599 191.098 297.017 190.863 296.567 190.395C296.118 189.923 295.894 189.293 295.894 188.505V188.339C295.894 187.815 295.993 187.348 296.191 186.938C296.393 186.524 296.673 186.202 297.031 185.971C297.393 185.736 297.783 185.619 298.203 185.619C298.89 185.619 299.424 185.845 299.805 186.298C300.186 186.75 300.376 187.398 300.376 188.241V188.617H296.797C296.81 189.138 296.961 189.56 297.251 189.882C297.544 190.201 297.915 190.36 298.364 190.36C298.683 190.36 298.953 190.295 299.175 190.165C299.396 190.035 299.59 189.862 299.756 189.647L300.308 190.077C299.865 190.757 299.201 191.098 298.315 191.098ZM298.203 186.361C297.839 186.361 297.533 186.495 297.285 186.762C297.038 187.025 296.885 187.396 296.826 187.875H299.473V187.807C299.447 187.348 299.323 186.993 299.102 186.742C298.88 186.488 298.581 186.361 298.203 186.361ZM306.025 190.36C306.348 190.36 306.629 190.263 306.87 190.067C307.111 189.872 307.244 189.628 307.271 189.335H308.125C308.109 189.638 308.005 189.926 307.812 190.199C307.62 190.473 307.363 190.691 307.041 190.854C306.722 191.016 306.383 191.098 306.025 191.098C305.306 191.098 304.733 190.858 304.307 190.38C303.883 189.898 303.672 189.241 303.672 188.407V188.256C303.672 187.742 303.766 187.284 303.955 186.884C304.144 186.483 304.414 186.173 304.766 185.951C305.12 185.73 305.539 185.619 306.021 185.619C306.613 185.619 307.104 185.797 307.495 186.151C307.889 186.506 308.099 186.967 308.125 187.533H307.271C307.244 187.191 307.114 186.911 306.88 186.693C306.649 186.472 306.362 186.361 306.021 186.361C305.562 186.361 305.205 186.527 304.951 186.859C304.701 187.188 304.575 187.665 304.575 188.29V188.461C304.575 189.07 304.701 189.538 304.951 189.867C305.202 190.196 305.56 190.36 306.025 190.36ZM312.402 191C312.35 190.896 312.308 190.71 312.275 190.443C311.855 190.88 311.354 191.098 310.771 191.098C310.251 191.098 309.823 190.951 309.487 190.658C309.155 190.362 308.989 189.988 308.989 189.535C308.989 188.985 309.198 188.559 309.614 188.256C310.034 187.95 310.623 187.797 311.382 187.797H312.261V187.382C312.261 187.066 312.166 186.815 311.978 186.63C311.789 186.441 311.51 186.347 311.143 186.347C310.82 186.347 310.55 186.428 310.332 186.591C310.114 186.754 310.005 186.951 310.005 187.182H309.097C309.097 186.918 309.189 186.664 309.375 186.42C309.564 186.173 309.818 185.977 310.137 185.834C310.459 185.691 310.812 185.619 311.196 185.619C311.805 185.619 312.282 185.772 312.627 186.078C312.972 186.381 313.151 186.799 313.164 187.333V189.765C313.164 190.25 313.226 190.635 313.35 190.922V191H312.402ZM310.903 190.312C311.187 190.312 311.455 190.238 311.709 190.092C311.963 189.945 312.147 189.755 312.261 189.521V188.437H311.553C310.446 188.437 309.893 188.76 309.893 189.408C309.893 189.691 309.987 189.913 310.176 190.072C310.365 190.232 310.607 190.312 310.903 190.312ZM317.134 186.527C316.997 186.505 316.849 186.493 316.689 186.493C316.097 186.493 315.695 186.745 315.483 187.25V191H314.58V185.717H315.459L315.474 186.327C315.77 185.855 316.19 185.619 316.733 185.619C316.909 185.619 317.043 185.642 317.134 185.688V186.527ZM317.651 188.314C317.651 187.504 317.843 186.853 318.228 186.361C318.612 185.867 319.115 185.619 319.736 185.619C320.355 185.619 320.845 185.831 321.206 186.254V183.5H322.109V191H321.279L321.235 190.434C320.874 190.876 320.371 191.098 319.727 191.098C319.115 191.098 318.615 190.847 318.228 190.346C317.843 189.844 317.651 189.19 317.651 188.383V188.314ZM318.555 188.417C318.555 189.016 318.678 189.485 318.926 189.823C319.173 190.162 319.515 190.331 319.951 190.331C320.524 190.331 320.942 190.074 321.206 189.56V187.133C320.936 186.635 320.521 186.386 319.961 186.386C319.518 186.386 319.173 186.557 318.926 186.898C318.678 187.24 318.555 187.746 318.555 188.417Z" fill="#161615"/>
</svg>
