<svg width="32" height="20" viewBox="0 0 32 20" fill="none" xmlns="http://www.w3.org/2000/svg">
<path d="M27.1871 0H4.8129C2.15481 0 0 2.04925 0 4.57713V15.4229C0 17.9508 2.15481 20 4.8129 20H27.1871C29.8452 20 32 17.9508 32 15.4229V4.57713C32 2.04925 29.8452 0 27.1871 0Z" fill="#030303"/>
<path d="M19.4482 17H11.0635V15.8311L15.4932 10.9092C16.1494 10.165 16.6006 9.56152 16.8467 9.09863C17.0986 8.62988 17.2246 8.14648 17.2246 7.64844C17.2246 6.98047 17.0225 6.43262 16.6182 6.00488C16.2139 5.57715 15.6748 5.36328 15.001 5.36328C14.1924 5.36328 13.5625 5.59473 13.1113 6.05762C12.666 6.51465 12.4434 7.15332 12.4434 7.97363H10.8174C10.8174 6.7959 11.1953 5.84375 11.9512 5.11719C12.7129 4.39062 13.7295 4.02734 15.001 4.02734C16.1904 4.02734 17.1309 4.34082 17.8223 4.96777C18.5137 5.58887 18.8594 6.41797 18.8594 7.45508C18.8594 8.71484 18.0566 10.2148 16.4512 11.9551L13.0234 15.6729H19.4482V17Z" fill="#A4A4A3"/>
</svg>
